<?xml version="1.0" encoding="UTF-8"?>
<svg id="_레이어_1" data-name="레이어_1" xmlns="http://www.w3.org/2000/svg" version="1.1" viewBox="0 0 284.65 262.54">
  <!-- Generator: Adobe Illustrator 29.5.0, SVG Export Plug-In . SVG Version: 2.1.0 Build 137)  -->
  <defs>
    <style>
      .st0 {
        fill: #3b1c1d;
      }

      .st1 {
        fill: #f4d31f;
      }
    </style>
  </defs>
  <path class="st0" d="M66.81,206.98c-29.08-13.78-54.87-39.33-63.46-71.02C-7.69,95.23,10.58,57.03,42.58,32.21c60.74-47.12,163.44-42.89,215.94,14.99,34.68,38.23,34.94,91.42.17,129.7-35.06,38.6-91.01,52.53-141.74,45.87-16.39,11.02-32.35,23.17-49.15,33.55-2.67,1.65-9.35,6.19-12.16,6.22-3.04.03-3.64-2.51-3.1-5.08l14.26-50.48ZM71.94,94.54h14.87c.41,0,2.21-1.09,2.67-1.43,6.09-4.44,3.32-13.73-4.37-14.31-13.89-1.05-29.06.82-43.09,0-6.51.57-9.47,8.91-4.82,13.56.53.53,3.22,2.17,3.81,2.17h14.35l.51.51v50.23c0,.23.97,2.19,1.22,2.54,3.31,4.83,11.51,4.31,14.01-.99.18-.38.84-2.01.84-2.24v-50.06ZM99.66,136.96h25.02c2.44,3,3.06,10.79,6.26,12.88,2.67,1.74,9.1,1.51,11.39-.8,2.46-2.48,1.25-7.95.35-10.95-5.15-17.17-14.24-34.51-19.67-51.75-4.47-9.52-15.56-10.19-20.85-1.05-7.05,19.21-15.32,38.07-21.3,57.64-.32,3.58.41,6.33,4.06,7.48,2.94.92,8.22,1.08,10.2-1.76,1.15-1.65,4.01-11.35,4.54-11.69ZM164.88,135.2v-49.72c0-.13-.81-2.18-.96-2.46-3.31-6.35-13.29-5.31-15.3,1.59-.08,20.17-.61,40.51.27,60.6.72,2.17,3.32,4.35,5.59,4.66,8.92,1.23,20.68-.73,29.89-.12,6.51-1.64,7.92-10.32,1.93-13.59-.31-.17-1.99-.95-2.12-.95h-19.31ZM209.65,104.45v-19.31c0-1.07-2.12-4.06-3.1-4.76-4.97-3.55-11.45-.93-12.88,4.84l.15,59.83c2.29,8.5,14.93,7.65,15.82-1.14.59-5.82-.44-12.53.01-18.44l2.91-3.25,19.98,26.13c7.13,7.1,17.98-1.95,12.58-10.19l-20.38-27.06,19.22-19.33c4.44-6.31-3.73-14.97-10.17-10.86l-23.12,23.01-1.03.51Z"/>
  <path class="st1" d="M209.65,104.45l1.03-.51,23.12-23.01c6.44-4.11,14.61,4.55,10.17,10.86l-19.22,19.33,20.38,27.06c5.4,8.24-5.45,17.29-12.58,10.19l-19.98-26.13-2.91,3.25c-.45,5.92.58,12.63-.01,18.44-.89,8.79-13.53,9.64-15.82,1.14l-.15-59.83c1.43-5.77,7.92-8.4,12.88-4.84.98.7,3.1,3.69,3.1,4.76v19.31Z"/>
  <path class="st1" d="M99.66,136.96c-.53.34-3.39,10.04-4.54,11.69-1.98,2.84-7.26,2.68-10.2,1.76-3.65-1.14-4.38-3.9-4.06-7.48,5.98-19.56,14.25-38.42,21.3-57.64,5.29-9.14,16.39-8.48,20.85,1.05,5.42,17.24,14.52,34.59,19.67,51.75.9,3,2.11,8.47-.35,10.95-2.29,2.31-8.72,2.54-11.39.8-3.2-2.09-3.82-9.88-6.26-12.87h-25.02ZM104.06,122.56h16.4l-8.37-23.24-8.03,23.24Z"/>
  <path class="st1" d="M71.94,94.54v50.06c0,.23-.66,1.86-.84,2.24-2.49,5.3-10.69,5.81-14.01.99-.24-.36-1.22-2.31-1.22-2.54v-50.23l-.51-.51h-14.35c-.59,0-3.28-1.65-3.81-2.17-4.65-4.65-1.69-12.99,4.82-13.56,14.02.82,29.2-1.05,43.09,0,7.69.58,10.46,9.87,4.37,14.31-.47.34-2.26,1.43-2.67,1.43h-14.87Z"/>
  <path class="st1" d="M164.88,135.2h19.31c.13,0,1.81.78,2.12.95,5.99,3.27,4.58,11.95-1.93,13.59-9.21-.61-20.97,1.35-29.89.12-2.27-.31-4.87-2.49-5.59-4.66-.88-20.08-.35-40.43-.27-60.6,2.01-6.9,11.99-7.94,15.3-1.59.15.28.96,2.33.96,2.46v49.72Z"/>
  <polygon class="st0" points="104.06 122.56 112.09 99.32 120.46 122.56 104.06 122.56"/>
</svg>