<svg width="42" height="42" viewBox="0 0 42 42" fill="none" xmlns="http://www.w3.org/2000/svg">
<path d="M21.459 29.8926C31.2859 28.7386 31.0243 9.20503 17.9587 11.9806C9.19803 13.841 12.1099 24.2171 11.4511 30.4348C10.9431 35.2597 5.93917 34.4141 3.43467 31.4993C-0.105816 27.3856 -0.608725 20.5909 0.573114 15.4974C3.57046 2.63415 17.149 -2.8822 29.2541 1.46522C44.3163 6.87712 46.1469 27.8731 34.1173 37.4334C26.9105 43.1587 18.4667 41.8604 9.80152 41.9002C7.84017 41.4675 9.11756 37.2792 8.61465 35.8367L8.79067 35.5084H11.4712V38.9605C11.612 39.1893 11.793 39.1843 12.0294 39.2092C14.9061 39.5425 21.801 39.3783 24.6273 38.8063C35.6008 36.5828 41.2435 25.9182 38.5026 15.4327C34.1977 -1.03678 9.06224 -1.60384 3.79677 14.5075C2.37856 18.845 2.32324 25.7143 5.39603 29.3902C6.16548 30.3104 8.5191 32.2056 8.72027 29.9722C9.24329 24.0479 7.18639 18.059 11.3153 12.9456C17.4357 5.36497 30.2096 8.73746 31.1149 18.7256C31.9648 28.1168 26.2065 33.6531 16.7417 32.7776C16.0326 32.7129 14.8809 32.2205 14.8809 31.4047V15.4277H17.5614L17.8028 29.8777C18.9646 29.7782 20.3224 30.012 21.454 29.8777L21.459 29.8926Z" fill="black"/>
</svg>
